<svg enable-background="new 0 0 150 69" viewBox="0 0 150 69" xmlns="http://www.w3.org/2000/svg"><path d="m110.3 30.8h15v4.3h-20.6v-21.4h20.6v4.5h-15z" fill="#223e7e"/><path d="m47 13.7h5.7v21.4h-5.7z" fill="#223e7e"/><path d="m77.4 13.7v4.5h7.1v16.9h5.7v-16.9h7.2v-4.5z" fill="#223e7e"/><path d="m69.5 22.2h-4.9c-1 .1-2-.6-2.2-1.6 0-.1 0-.2 0-.4-.1-1 .7-1.9 1.8-2h.4 10.3v-4.5h-10.9c-4.1 0-7.4 2.3-7.4 6.5s3.4 6.5 7.4 6.5h5c1.1 0 2 .9 2 2s-.9 2-2 2h-11.5v4.5h12c4.1 0 7.4-2.3 7.4-6.5s-3.4-6.5-7.4-6.5z" fill="#223e7e"/><path d="m29.7 13.7-8.1 19.3-7.6-8.6 9.6-10.7h-6.5l-9.1 10.2v-10.2h-5.7v21.4h5.7v-10.2l9.1 10.2h9.4l6.5-16.1 4.8 11.8h-7.6l1.8 4.3h13.3l-8.9-21.4z" fill="#223e7e"/><path d="m112.1 22.3h10.2v4.2h-8.3z" fill="#223e7e"/><path d="m133 30.8h15v4.3h-20.6v-21.4h20.6v4.5h-15z" fill="#223e7e"/><path d="m134.9 22.3h10.2v4.2h-8.4z" fill="#223e7e"/><g fill="#595959"><path d="m7.7 49h-1l-2.6-3.4-.7.7v2.7h-.9v-7.1h.8v3.5l3.2-3.5h1l-2.8 3.1z"/><path d="m13.5 49-.9-2.3h-2.8l-.9 2.3h-.8l2.8-7.1h.7l2.8 7.1zm-1.1-3-.8-2.2c-.1-.3-.2-.6-.3-1-.1.3-.2.7-.3 1l-.9 2.2z"/><path d="m15.3 49v-7.1h.8v7.1z"/><path d="m21.9 47.1c0 .6-.2 1.1-.7 1.5-.5.3-1.1.5-1.8.5-.8 0-1.5-.1-1.9-.3v-.8l.9.3c.3.1.7.1 1 .1.5 0 1-.1 1.2-.3.3-.2.4-.5.4-.9 0-.2 0-.4-.1-.6s-.3-.3-.5-.4-.6-.3-1.1-.5c-.7-.2-1.1-.5-1.4-.8s-.4-.7-.4-1.3c0-.5.2-1 .6-1.3s1-.5 1.6-.5c.7 0 1.4.1 1.9.4l-.3.7c-.6-.2-1.2-.4-1.7-.4-.4 0-.8.1-1 .3s-.4.4-.4.8c0 .2 0 .4.1.6s.2.3.5.4c.2.1.5.3 1 .4.7.3 1.3.5 1.5.9.4.3.6.7.6 1.2z"/><path d="m25.6 49h-.8v-6.3h-2.2v-.7h5.3v.7h-2.2v6.3z"/><path d="m34.9 49h-3.9v-7.1h3.9v.7h-3.1v2.3h2.9v.7h-2.9v2.6h3.1z"/><path d="m36.2 49v-7.1h.8v6.3h3.1v.8z"/><path d="m45.2 49h-3.9v-7.1h3.9v.7h-3.2v2.3h3v.7h-3v2.6h3.1v.8z"/><path d="m49.5 42.5c-.8 0-1.4.3-1.8.8-.5.5-.7 1.2-.7 2.1s.2 1.6.7 2.1c.4.5 1.1.8 1.9.8.5 0 1.1-.1 1.7-.3v.7c-.5.2-1.1.3-1.8.3-1 0-1.8-.3-2.4-.9s-.8-1.5-.8-2.7c0-.7.1-1.4.4-1.9s.7-1 1.2-1.3 1.1-.4 1.8-.4 1.4.1 1.9.4l-.3.7c-.7-.2-1.2-.4-1.8-.4z"/><path d="m55.2 49h-.8v-6.3h-2.2v-.7h5.3v.7h-2.2v6.3z"/><path d="m59.2 46v3h-.8v-7.1h1.9c.9 0 1.5.2 1.9.5s.6.8.6 1.5c0 .9-.5 1.6-1.4 1.9l1.9 3.2h-1l-1.6-3zm0-.7h1.1c.6 0 1-.1 1.3-.3s.4-.6.4-1c0-.5-.1-.8-.4-1s-.7-.3-1.3-.3h-1.1z"/><path d="m64.4 49v-7.1h.8v7.1z"/><path d="m70.1 42.5c-.8 0-1.4.3-1.8.8-.5.5-.7 1.2-.7 2.1s.2 1.6.7 2.1c.4.5 1.1.8 1.9.8.5 0 1.1-.1 1.7-.3v.7c-.5.2-1.1.3-1.8.3-1 0-1.8-.3-2.4-.9s-.8-1.5-.8-2.7c0-.7.1-1.4.4-1.9s.7-1 1.2-1.3 1.1-.4 1.8-.4 1.4.1 1.9.4l-.3.7c-.8-.2-1.3-.4-1.8-.4z"/><path d="m77.9 49-.9-2.3h-2.8l-.9 2.3h-.8l2.8-7.1h.7l2.8 7.1zm-1.1-3-.8-2.2c-.1-.3-.2-.6-.3-1-.1.3-.2.7-.3 1l-.9 2.2z"/><path d="m79.7 49v-7.1h.8v6.3h3.1v.8z"/><path d="m90.9 49h-3.9v-7.1h3.9v.7h-3.1v2.3h2.9v.7h-2.9v2.6h3.1z"/><path d="m97.7 49h-.9l-3.9-6c.1.7.1 1.3.1 1.9v4h-.8v-7.1h.9l3.9 5.9c0-.1 0-.4 0-.8 0-.5 0-.8 0-1v-4.1h.8v7.2z"/><path d="m102.6 45.3h2.4v3.4c-.4.1-.8.2-1.1.3-.4.1-.8.1-1.3.1-1.1 0-1.9-.3-2.5-1-.6-.6-.9-1.5-.9-2.7 0-.7.1-1.4.4-1.9.3-.6.7-1 1.3-1.3s1.2-.4 2-.4 1.5.1 2.1.4l-.3.7c-.6-.3-1.3-.4-1.8-.4-.9 0-1.5.3-2 .8s-.7 1.2-.7 2.1c0 1 .2 1.7.7 2.2s1.2.7 2.1.7c.5 0 1-.1 1.4-.2v-2.1h-1.6v-.7z"/><path d="m106.5 49v-7.1h.8v7.1z"/><path d="m114.6 49h-.9l-3.9-5.9c.1.7.1 1.3.1 1.9v4h-.8v-7.1h.9l3.9 5.9c0-.1 0-.4 0-.8 0-.5 0-.8 0-1v-4.1h.8v7.1z"/><path d="m120.3 49h-3.9v-7.1h3.9v.7h-3.1v2.3h2.9v.7h-2.9v2.6h3.1z"/><path d="m125.6 49h-3.9v-7.1h3.9v.7h-3.1v2.3h2.9v.7h-2.9v2.6h3.1z"/><path d="m127.7 46v3h-.8v-7.1h1.9c.9 0 1.5.2 1.9.5s.6.8.6 1.5c0 .9-.5 1.6-1.4 1.9l1.9 3.2h-1l-1.7-2.9h-1.4zm0-.7h1.1c.6 0 1-.1 1.3-.3s.4-.6.4-1c0-.5-.1-.8-.4-1s-.7-.3-1.3-.3h-1.1z"/><path d="m132.9 49v-7.1h.8v7.1z"/><path d="m141 49h-1l-3.9-5.9c.1.7.1 1.3.1 1.9v4h-.8v-7.1h.9l3.9 5.9c0-.1 0-.4 0-.8 0-.5 0-.8 0-1v-4.1h.8z"/><path d="m145.8 45.3h2.4v3.4c-.4.1-.8.2-1.1.3-.4.1-.8.1-1.3.1-1.1 0-1.9-.3-2.5-1-.6-.6-.9-1.5-.9-2.7 0-.7.1-1.4.4-1.9.3-.6.7-1 1.3-1.3s1.2-.4 2-.4 1.5.1 2.1.4l-.3.7c-.6-.3-1.3-.4-1.8-.4-.9 0-1.5.3-2 .8s-.7 1.2-.7 2.1c0 1 .2 1.7.7 2.2s1.2.7 2.1.7c.5 0 1-.1 1.4-.2v-2.1h-1.6v-.7z"/></g></svg>