<?xml version="1.0" encoding="utf-8"?>
<!-- Generator: Adobe Illustrator 23.0.3, SVG Export Plug-In . SVG Version: 6.00 Build 0)  -->
<svg version="1.1" id="Layer_1" xmlns="http://www.w3.org/2000/svg" xmlns:xlink="http://www.w3.org/1999/xlink" x="0px" y="0px"
	 viewBox="0 0 188.2 48.8" style="enable-background:new 0 0 188.2 48.8;" xml:space="preserve">
<style type="text/css">
	.st0{fill:#004C98;}
	.st1{fill:#111516;}
</style>
<g>
	<g>
		<rect x="63.4" y="0.2" class="st0" width="8" height="30.2"/>
		<polygon class="st0" points="106.3,0.2 106.3,6.5 116.4,6.5 116.4,30.4 124.4,30.4 124.4,6.5 134.5,6.5 134.5,0.2 		"/>
		<path class="st0" d="M95.1,12.1h-6.7c-1.8,0-3.2-0.7-3.2-2.8c0-2.1,1.4-2.8,3.2-2.8h14.4V0.2H87.4C81.7,0.2,77,3.5,77,9.3
			s4.7,9.1,10.4,9.1h6.9c1.8,0,3.2,0.7,3.2,2.8c0,2.1-1.4,2.8-3.2,2.8H78.2v6.3h16.9c5.7,0,10.4-3.3,10.4-9.1
			C105.5,15.5,100.8,12.1,95.1,12.1"/>
		<polygon class="st0" points="38.9,0.2 27.6,27.4 16.8,15.3 30.3,0.2 21.1,0.2 8.3,14.5 8.3,0.2 0.3,0.2 0.3,30.4 8.3,30.4 8.3,16 
			21.1,30.4 34.5,30.4 43.7,7.6 50.4,24.3 39.7,24.3 42.3,30.4 61,30.4 48.4,0.2 		"/>
		<rect x="179.9" y="0.3" class="st0" width="8" height="30.2"/>
		<polygon class="st0" points="155.8,0.3 165.3,0.3 177.9,30.5 159.2,30.5 156.6,24.5 167.2,24.5 160.6,7.7 151.4,30.5 143.2,30.5 
					"/>
	</g>
	<g>
		<polygon class="st1" points="8.2,37.3 6.8,37.3 1.3,43 1.3,37.3 0.3,37.3 0.3,48.5 1.3,48.5 1.3,44.4 2.8,42.8 7.1,48.5 8.4,48.5 
			3.6,42.1 		"/>
		<rect x="9.6" y="37.5" class="st1" width="1.1" height="1.3"/>
		<rect x="9.7" y="40.2" class="st1" width="1" height="8.4"/>
		<path class="st1" d="M23.1,40.9c-0.2-0.3-0.5-0.5-0.8-0.6C21.9,40.1,21.5,40,21,40c-0.7,0-1.3,0.2-1.7,0.5
			c-0.3,0.2-0.6,0.5-0.8,0.8c-0.2-0.3-0.4-0.6-0.7-0.8c-0.4-0.3-1-0.5-1.7-0.5c-0.4,0-0.7,0-1,0.2c-0.3,0.1-0.5,0.2-0.7,0.4
			c-0.2,0.1-0.3,0.3-0.5,0.4v-0.8h-1v8.4h1v-5.6c0-0.2,0-0.3,0.1-0.6c0.1-0.2,0.2-0.4,0.4-0.7c0.2-0.2,0.4-0.4,0.6-0.5
			s0.6-0.2,0.9-0.2c0.4,0,0.6,0,0.9,0.1c0.2,0.1,0.4,0.2,0.5,0.4c0.1,0.2,0.2,0.4,0.3,0.6c0.1,0.3,0.1,0.6,0.1,0.9v5.5h1v-5.7
			c0-0.2,0-0.3,0.1-0.6s0.2-0.4,0.4-0.6c0.2-0.2,0.4-0.4,0.6-0.5s0.6-0.2,0.9-0.2c0.4,0,0.6,0,0.9,0.1c0.2,0.1,0.4,0.2,0.5,0.4
			c0.1,0.2,0.2,0.4,0.3,0.7c0.1,0.3,0.1,0.6,0.1,0.9v5.5h1v-5.7c0-0.3,0-0.7-0.1-1C23.4,41.4,23.3,41.1,23.1,40.9z"/>
		<path class="st1" d="M32.5,45.7c0,0.7-0.2,1.2-0.5,1.5c-0.3,0.3-0.8,0.5-1.4,0.5c-0.3,0-0.7-0.1-1-0.2S29,47.3,28.7,47l-0.2-0.1
			L28,47.8l0.1,0.1c0.3,0.3,0.7,0.5,1.2,0.6c0.4,0.1,0.9,0.2,1.4,0.2c0.4,0,0.8-0.1,1.1-0.2c0.4-0.1,0.7-0.3,0.9-0.5
			c0.3-0.2,0.5-0.6,0.6-0.9c0.1-0.4,0.2-0.8,0.2-1.3v-8.3h-1V45.7z"/>
		<path class="st1" d="M38.4,40c-0.6,0-1.1,0.1-1.6,0.3c-0.5,0.2-0.9,0.4-1.3,0.7L35.5,41l0.5,0.8l0.2-0.1c0.3-0.2,0.7-0.4,1.1-0.6
			c0.4-0.1,0.8-0.2,1.2-0.2c0.7,0,1.2,0.2,1.5,0.5c0.3,0.3,0.5,0.8,0.5,1.4v0.8h-2.3c-0.5,0-0.9,0.1-1.3,0.2
			c-0.4,0.1-0.7,0.3-0.9,0.5c-0.3,0.2-0.4,0.5-0.5,0.8c-0.1,0.3-0.2,0.6-0.2,0.9v0.2c0,0.4,0.1,0.8,0.2,1.1c0.2,0.3,0.3,0.6,0.6,0.8
			c0.3,0.2,0.5,0.4,0.9,0.5s0.7,0.2,1.1,0.2c0.4,0,0.7,0,1-0.1c0.3-0.1,0.5-0.2,0.8-0.3c0.2-0.1,0.4-0.3,0.6-0.4c0,0,0,0,0,0v0.8h1
			v-5.8c0-0.9-0.3-1.6-0.8-2C40,40.2,39.3,40,38.4,40z M37.4,47.6c-0.2-0.1-0.4-0.1-0.6-0.3s-0.3-0.3-0.4-0.5
			c-0.1-0.2-0.2-0.4-0.2-0.7v-0.2c0-0.2,0-0.4,0.1-0.6c0.1-0.2,0.2-0.3,0.3-0.4c0.1-0.1,0.3-0.2,0.6-0.3c0.3-0.1,0.5-0.1,0.9-0.1
			h2.2V46c0,0.3-0.1,0.5-0.3,0.8s-0.4,0.4-0.7,0.6c-0.2,0.1-0.4,0.2-0.7,0.2C38.3,47.7,37.8,47.7,37.4,47.6z"/>
		<path class="st1" d="M49,41.1L49,41.1c-0.3-0.3-0.6-0.6-1-0.8C47.5,40.1,47,40,46.4,40c-0.5,0-1,0.1-1.4,0.3
			c-0.4,0.2-0.8,0.4-1.1,0.8s-0.5,0.7-0.7,1.2c-0.2,0.4-0.2,0.9-0.2,1.5v1.1c0,0.5,0.1,1,0.2,1.5c0.1,0.5,0.4,0.9,0.6,1.2
			c0.3,0.3,0.7,0.6,1.1,0.8c0.4,0.2,1,0.3,1.5,0.3c0.7,0,1.3-0.1,1.8-0.3c0.5-0.2,0.9-0.4,1.2-0.7l0.1-0.1l-0.5-0.8L49,46.9
			c-0.3,0.2-0.6,0.4-1,0.5c-0.4,0.1-0.9,0.2-1.5,0.2c-0.8,0-1.4-0.2-1.8-0.7c-0.4-0.5-0.7-1.2-0.7-2.2v-0.1h5.8v-0.8
			c0-0.6-0.1-1.1-0.2-1.6C49.5,41.8,49.2,41.4,49,41.1z M44.1,43.7c0-0.9,0.2-1.6,0.6-2.1c0.4-0.5,1-0.7,1.7-0.7
			c0.8,0,1.4,0.2,1.8,0.7c0.4,0.5,0.6,1.2,0.6,2.1H44.1z"/>
		<path class="st1" d="M57,46.9c-0.3,0.2-0.6,0.4-1,0.5l0,0c-0.4,0.1-0.8,0.2-1.4,0.2c-0.4,0-0.8-0.1-1.1-0.2
			c-0.3-0.1-0.5-0.3-0.8-0.6s-0.3-0.6-0.5-0.9c-0.1-0.3-0.2-0.8-0.2-1.2v-1.1c0-0.8,0.2-1.5,0.6-2c0.4-0.5,1-0.7,1.8-0.7
			c0.4,0,0.8,0,1.1,0.1c0.3,0.1,0.7,0.3,1,0.5l0.2,0.1l0.5-0.8l-0.1-0.1c-0.4-0.3-0.8-0.5-1.2-0.6c-1-0.3-2-0.3-2.8,0.1
			c-0.4,0.2-0.8,0.4-1.1,0.8c-0.3,0.3-0.5,0.7-0.7,1.2c-0.2,0.5-0.2,1-0.2,1.5v1.1c0,0.6,0.1,1.2,0.2,1.7c0.2,0.5,0.4,0.9,0.7,1.2
			s0.7,0.6,1.1,0.7c0.4,0.2,0.9,0.2,1.4,0.2c0.7,0,1.3-0.1,1.7-0.3c0.5-0.2,0.9-0.4,1.2-0.6l0.1-0.1l-0.5-0.8L57,46.9z"/>
		<path class="st1" d="M64.6,40.9c-0.2-0.3-0.6-0.5-0.9-0.6c-0.4-0.2-0.8-0.2-1.3-0.2c-0.4,0-0.8,0-1.1,0.2
			c-0.3,0.1-0.6,0.2-0.8,0.4c-0.2,0.2-0.4,0.3-0.6,0.5v-4.2h-1v11.7h1v-5.6c0-0.2,0.1-0.3,0.1-0.6s0.2-0.4,0.4-0.7
			c0.2-0.2,0.4-0.4,0.7-0.5c0.3-0.1,0.6-0.2,1-0.2c0.8,0,1.3,0.2,1.6,0.5c0.3,0.4,0.5,0.9,0.5,1.5v5.5h1v-5.7c0-0.4-0.1-0.7-0.2-1
			C65,41.4,64.9,41.1,64.6,40.9z"/>
		<path class="st1" d="M72.6,45.8c0,0.1-0.1,0.3-0.1,0.5c-0.1,0.2-0.2,0.4-0.4,0.6c-0.2,0.2-0.4,0.4-0.8,0.5
			c-0.3,0.1-0.7,0.2-1.1,0.2c-0.4,0-0.8-0.1-1-0.2c-0.2-0.1-0.4-0.3-0.6-0.5c-0.1-0.2-0.2-0.4-0.3-0.7c0-0.3-0.1-0.5-0.1-0.7v-5.4
			h-1v5.6c0,0.4,0.1,0.7,0.1,1.1c0.1,0.3,0.3,0.7,0.5,0.9c0.2,0.3,0.5,0.5,0.9,0.6c0.4,0.2,0.8,0.2,1.4,0.2c0.4,0,0.7-0.1,1-0.2
			c0.3-0.1,0.6-0.2,0.8-0.4c0.2-0.1,0.4-0.3,0.6-0.4v0.9h1v-8.4h-1L72.6,45.8L72.6,45.8z"/>
		<rect x="75.9" y="36.8" class="st1" width="1" height="11.7"/>
		<path class="st1" d="M85.7,43.5h2.7v3.6c-0.3,0.2-0.6,0.3-1.1,0.4c-0.5,0.1-1,0.2-1.5,0.2c-1.1,0-2-0.3-2.6-1s-0.9-1.7-0.9-3.1V42
			c0-0.6,0.1-1.1,0.2-1.6c0.2-0.5,0.4-0.9,0.6-1.2c0.3-0.3,0.6-0.6,1-0.8c0.4-0.2,0.9-0.3,1.4-0.3c0.6,0,1.2,0.1,1.6,0.2
			s0.9,0.4,1.3,0.6l0.2,0.1l0.6-0.8l-0.2-0.1c-0.4-0.3-0.9-0.5-1.5-0.7c-0.6-0.2-1.3-0.3-2-0.3c-0.7,0-1.3,0.1-1.8,0.3s-1,0.6-1.4,1
			s-0.6,1-0.8,1.6c-0.2,0.6-0.3,1.3-0.3,2.1v1.2c0,0.8,0.1,1.5,0.3,2.2c0.2,0.7,0.4,1.2,0.8,1.7c0.4,0.5,0.8,0.8,1.4,1.1
			c0.6,0.3,1.3,0.4,2,0.4c0.4,0,0.9,0,1.2-0.1c0.4-0.1,0.7-0.1,1-0.2c0.3-0.1,0.6-0.2,0.8-0.3c0.2-0.1,0.4-0.2,0.5-0.3l0.1-0.1v-5.1
			h-3.7L85.7,43.5L85.7,43.5z"/>
		<path class="st1" d="M95,40c-0.2,0-0.4,0-0.6,0c-0.3,0-0.7,0-0.9,0.2s-0.5,0.3-0.7,0.4c-0.2,0.2-0.4,0.3-0.5,0.5v-1h-1v8.4h1v-4.7
			c0-0.4,0.1-0.8,0.1-1.2s0.2-0.7,0.4-0.9c0.2-0.2,0.4-0.4,0.7-0.6c0.3-0.1,0.6-0.2,0.9-0.2c0.2,0,0.4,0,0.5,0s0.3,0.1,0.4,0.1
			l0.2,0.1l0.3-1l-0.2-0.1C95.4,40.1,95.2,40.1,95,40z"/>
		<path class="st1" d="M99.4,40c-0.6,0-1.1,0.1-1.6,0.3c-0.5,0.2-0.9,0.4-1.3,0.7L96.4,41l0.5,0.8l0.2-0.1c0.4-0.2,0.7-0.4,1.1-0.6
			c0.4-0.1,0.8-0.2,1.2-0.2c0.7,0,1.2,0.2,1.5,0.5c0.3,0.3,0.5,0.8,0.5,1.4v0.8h-2.3c-0.5,0-0.9,0.1-1.3,0.2
			c-0.4,0.1-0.7,0.3-0.9,0.5c-0.3,0.2-0.4,0.5-0.5,0.8s-0.2,0.6-0.2,0.9v0.2c0,0.4,0.1,0.8,0.2,1.1c0.2,0.3,0.3,0.6,0.6,0.8
			c0.3,0.2,0.6,0.4,0.9,0.5s0.7,0.2,1.1,0.2c0.4,0,0.7,0,1-0.1c0.3-0.1,0.5-0.2,0.8-0.3c0.2-0.1,0.4-0.3,0.6-0.4c0,0,0,0,0,0v0.8h1
			v-5.8c0-0.9-0.3-1.6-0.8-2C101,40.2,100.3,40,99.4,40z M98.3,47.6c-0.2-0.1-0.4-0.1-0.6-0.3c-0.2-0.1-0.3-0.3-0.4-0.5
			s-0.2-0.4-0.2-0.7v-0.2c0-0.2,0-0.4,0.1-0.6c0.1-0.2,0.2-0.3,0.3-0.4c0.1-0.1,0.3-0.2,0.6-0.3c0.3-0.1,0.6-0.1,0.9-0.1h2.2V46
			c0,0.3-0.1,0.6-0.3,0.8c-0.2,0.3-0.4,0.4-0.7,0.6c-0.2,0.1-0.4,0.2-0.7,0.2C99.3,47.7,98.8,47.7,98.3,47.6z"/>
		<path class="st1" d="M109.7,40.8c-0.2-0.2-0.5-0.4-0.8-0.5c-1-0.4-2-0.4-2.8-0.1c-0.4,0.2-0.8,0.4-1.1,0.7
			c-0.3,0.3-0.5,0.7-0.7,1.1c-0.2,0.4-0.2,0.9-0.2,1.5V45c0,1.2,0.3,2.1,0.8,2.7c0.6,0.6,1.4,0.9,2.4,0.9c0.7,0,1.2-0.2,1.7-0.4
			c0.3-0.2,0.5-0.4,0.7-0.6v0.9h1V36.8h-1L109.7,40.8L109.7,40.8z M109.1,41.5c0.2,0.2,0.4,0.3,0.5,0.5c0.1,0.2,0.2,0.4,0.2,0.7v2.7
			c0,0.4-0.1,0.7-0.2,1s-0.3,0.5-0.6,0.7c-0.2,0.2-0.5,0.3-0.8,0.4c-0.3,0.1-0.6,0.2-0.8,0.2c-0.8,0-1.4-0.2-1.7-0.7
			c-0.4-0.5-0.6-1.2-0.6-2v-1.3c0-0.9,0.2-1.6,0.6-2c0.4-0.5,1-0.7,1.7-0.7c0.3,0,0.7,0,1,0.2C108.6,41.2,108.8,41.3,109.1,41.5z"/>
		<path class="st1" d="M118.1,45.8c0,0.1-0.1,0.3-0.1,0.5c-0.1,0.2-0.2,0.4-0.4,0.6c-0.2,0.2-0.4,0.4-0.8,0.5
			c-0.3,0.1-0.7,0.2-1.1,0.2c-0.4,0-0.8-0.1-1-0.2s-0.4-0.3-0.6-0.5c-0.1-0.2-0.2-0.4-0.3-0.7c0-0.3-0.1-0.5-0.1-0.7v-5.4h-1v5.6
			c0,0.4,0.1,0.7,0.1,1.1c0.1,0.3,0.3,0.7,0.5,0.9c0.2,0.3,0.5,0.5,0.9,0.6c0.4,0.2,0.8,0.2,1.4,0.2c0.4,0,0.7-0.1,1-0.2
			c0.3-0.1,0.6-0.2,0.8-0.4c0.2-0.1,0.4-0.3,0.6-0.4v0.9h1v-8.4h-1L118.1,45.8L118.1,45.8z"/>
		<path class="st1" d="M124.1,40c-0.6,0-1.1,0.1-1.6,0.3c-0.5,0.2-0.9,0.4-1.3,0.7l-0.1,0.1l0.5,0.8l0.2-0.1
			c0.4-0.2,0.7-0.4,1.1-0.6c0.4-0.1,0.8-0.2,1.2-0.2c0.7,0,1.1,0.2,1.5,0.5c0.3,0.3,0.5,0.8,0.5,1.4v0.8h-2.3
			c-0.5,0-0.9,0.1-1.3,0.2c-0.4,0.1-0.7,0.3-0.9,0.5c-0.3,0.2-0.4,0.5-0.6,0.8c-0.1,0.3-0.2,0.6-0.2,0.9v0.2c0,0.4,0.1,0.8,0.2,1.1
			c0.2,0.3,0.3,0.6,0.6,0.8c0.3,0.2,0.6,0.4,0.9,0.5s0.7,0.2,1.1,0.2c0.4,0,0.7,0,1-0.1c0.3-0.1,0.5-0.2,0.8-0.3
			c0.2-0.1,0.4-0.3,0.6-0.4c0,0,0,0,0,0v0.8h1v-5.8c0-0.9-0.3-1.6-0.8-2C125.7,40.2,125,40,124.1,40z M126,44.5V46
			c0,0.3-0.1,0.6-0.3,0.8c-0.2,0.3-0.4,0.4-0.7,0.6c-0.2,0.1-0.4,0.2-0.6,0.2c-0.4,0.1-0.9,0.1-1.4,0c-0.2-0.1-0.4-0.1-0.6-0.3
			c-0.2-0.1-0.3-0.3-0.4-0.5c-0.1-0.2-0.2-0.4-0.2-0.7v-0.2c0-0.2,0-0.4,0.1-0.6c0.1-0.2,0.2-0.3,0.3-0.4c0.1-0.1,0.3-0.2,0.6-0.3
			c0.3-0.1,0.6-0.1,0.9-0.1H126z"/>
		<path class="st1" d="M132.8,47.5c-0.2,0.1-0.4,0.1-0.5,0.1c-0.2,0-0.4,0-0.6,0c-0.4,0-0.7-0.1-0.8-0.3c-0.1-0.3-0.2-0.7-0.2-1.3
			v-5h2.3v-0.9h-2.3v-2.1h-1v2.1h-1.4v0.9h1.4v5.1c0,0.5,0.1,0.9,0.1,1.2c0.1,0.3,0.3,0.6,0.5,0.7c0.2,0.2,0.4,0.3,0.7,0.4
			c0.3,0.1,0.5,0.1,0.8,0.1c0.2,0,0.4,0,0.7-0.1c0.3,0,0.5-0.1,0.6-0.1l0.2-0.1l-0.2-0.9L132.8,47.5z"/>
		<path class="st1" d="M140,41.1c-0.3-0.3-0.6-0.6-1.1-0.8c-0.4-0.2-0.9-0.3-1.5-0.3c-0.5,0-1,0.1-1.4,0.3c-0.4,0.2-0.8,0.4-1.1,0.8
			c-0.3,0.3-0.5,0.7-0.7,1.2c-0.2,0.4-0.2,0.9-0.2,1.5v1.1c0,0.5,0.1,1,0.2,1.5c0.1,0.5,0.4,0.9,0.6,1.2c0.3,0.3,0.7,0.6,1.1,0.8
			c0.4,0.2,1,0.3,1.6,0.3c0.7,0,1.3-0.1,1.8-0.3c0.5-0.2,0.9-0.4,1.2-0.7l0.1-0.1l-0.5-0.8l-0.2,0.1c-0.3,0.2-0.6,0.4-1,0.5
			c-0.4,0.1-0.9,0.2-1.4,0.2c-0.8,0-1.4-0.2-1.8-0.7c-0.4-0.5-0.7-1.2-0.7-2.2v-0.1h5.8v-0.8c0-0.6-0.1-1.1-0.2-1.6
			C140.4,41.8,140.2,41.4,140,41.1z M135,43.7c0-0.9,0.2-1.6,0.6-2.1c0.4-0.5,1-0.7,1.7-0.7c0.8,0,1.4,0.2,1.8,0.7
			c0.4,0.5,0.6,1.2,0.6,2.1H135z"/>
		<path class="st1" d="M152,43.3L152,43.3c-0.3-0.2-0.7-0.4-1.2-0.6c-0.5-0.2-1.1-0.3-1.8-0.5c-0.6-0.1-1-0.3-1.4-0.4
			c-0.3-0.1-0.6-0.3-0.7-0.4c-0.2-0.1-0.3-0.3-0.3-0.5c-0.1-0.2-0.1-0.4-0.1-0.6V40c0-0.3,0.1-0.6,0.2-0.8c0.1-0.2,0.3-0.4,0.6-0.6
			s0.5-0.3,0.8-0.3s0.6-0.1,0.9-0.1c0.6,0,1.1,0.1,1.6,0.2s0.9,0.3,1.2,0.5l0.2,0.1l0.5-0.8l-0.1-0.1c-0.4-0.3-0.8-0.5-1.4-0.7
			c-0.5-0.2-1.2-0.3-1.9-0.3c-0.4,0-0.9,0-1.3,0.2c-0.4,0.1-0.8,0.3-1.1,0.5c-0.3,0.2-0.6,0.5-0.8,0.9c-0.2,0.4-0.3,0.8-0.3,1.3v0.4
			c0,0.3,0,0.5,0.1,0.8c0.1,0.3,0.2,0.6,0.4,0.8s0.5,0.5,1,0.7c0.4,0.2,1,0.4,1.7,0.5c0.7,0.2,1.3,0.3,1.7,0.4
			c0.4,0.1,0.7,0.3,0.9,0.5c0.2,0.2,0.3,0.3,0.4,0.5c0.1,0.2,0.1,0.4,0.1,0.7v0.4c0,0.3-0.1,0.5-0.2,0.7c-0.1,0.2-0.3,0.4-0.5,0.6
			c-0.2,0.2-0.5,0.3-0.9,0.4c-0.5,0.2-1.1,0.2-1.8,0.1c-0.2,0-0.5-0.1-0.7-0.1c-0.3-0.1-0.5-0.2-0.8-0.3c-0.3-0.1-0.6-0.3-0.9-0.5
			l-0.2-0.1l-0.5,0.9l0.1,0.1c0.5,0.4,1.1,0.7,1.7,0.9c0.6,0.2,1.3,0.3,2,0.3c0.6,0,1.1-0.1,1.6-0.2c0.5-0.2,0.9-0.4,1.2-0.6
			c0.3-0.3,0.6-0.6,0.7-0.9c0.2-0.3,0.3-0.7,0.3-1.1v-0.4c0-0.4-0.1-0.8-0.2-1.2C152.5,43.9,152.3,43.6,152,43.3z"/>
		<path class="st1" d="M159.8,46.9c-0.3,0.2-0.6,0.4-0.9,0.5c-0.4,0.1-0.8,0.2-1.4,0.2c-0.4,0-0.8-0.1-1.1-0.2
			c-0.3-0.1-0.6-0.3-0.8-0.6s-0.4-0.6-0.4-0.9c-0.1-0.3-0.1-0.7-0.1-1.2v-1.1c0-0.8,0.2-1.5,0.6-2c0.4-0.5,1-0.7,1.8-0.7
			c0.4,0,0.8,0,1.1,0.1c0.4,0.1,0.7,0.3,1.1,0.5l0.2,0.1l0.5-0.8l-0.1-0.1c-0.4-0.3-0.8-0.5-1.2-0.6c-1-0.3-2.1-0.3-2.9,0.1
			c-0.4,0.2-0.8,0.4-1.1,0.8s-0.5,0.7-0.7,1.2c-0.1,0.5-0.2,1-0.2,1.5v1.1c0,0.6,0.1,1.2,0.2,1.7c0.2,0.5,0.4,0.9,0.7,1.2
			s0.7,0.6,1.1,0.7c0.4,0.2,0.9,0.2,1.4,0.2c0.7,0,1.3-0.1,1.7-0.3c0.5-0.2,0.9-0.4,1.2-0.6l0.1-0.1l-0.5-0.8L159.8,46.9z"/>
		<path class="st1" d="M167.4,40.9L167.4,40.9c-0.2-0.3-0.6-0.5-0.9-0.6c-0.4-0.2-0.8-0.2-1.4-0.2c-0.4,0-0.8,0-1.1,0.2
			c-0.3,0.1-0.6,0.2-0.8,0.4c-0.2,0.2-0.4,0.3-0.6,0.5v-4.2h-1v11.7h1v-5.6c0-0.2,0.1-0.3,0.1-0.6c0.1-0.2,0.2-0.4,0.4-0.7
			c0.2-0.2,0.4-0.4,0.7-0.5c0.3-0.1,0.6-0.2,1-0.2c0.8,0,1.3,0.2,1.6,0.5c0.3,0.4,0.5,0.9,0.5,1.5v5.5h1v-5.7c0-0.4-0.1-0.7-0.2-1
			C167.8,41.4,167.7,41.1,167.4,40.9z"/>
		<path class="st1" d="M173.3,40c-1.1,0-1.9,0.3-2.6,1s-0.9,1.6-0.9,2.8v1.1c0,1.2,0.3,2.1,0.9,2.8c0.6,0.7,1.5,1,2.6,1
			s1.9-0.3,2.6-1s0.9-1.6,0.9-2.8v-1.1c0-1.2-0.3-2.1-0.9-2.8C175.2,40.3,174.4,40,173.3,40z M175.7,43.8v1.1c0,1-0.2,1.7-0.7,2.2
			s-1,0.7-1.8,0.7s-1.4-0.2-1.8-0.7c-0.4-0.5-0.7-1.2-0.7-2.2v-1.1c0-1,0.2-1.7,0.7-2.2s1-0.7,1.8-0.7s1.4,0.2,1.8,0.7
			C175.5,42.1,175.7,42.8,175.7,43.8z"/>
		<path class="st1" d="M181.6,40c-1.1,0-1.9,0.3-2.6,1s-0.9,1.6-0.9,2.8v1.1c0,1.2,0.3,2.1,0.9,2.8c0.6,0.7,1.5,1,2.6,1
			c1.1,0,1.9-0.3,2.6-1s0.9-1.6,0.9-2.8v-1.1c0-1.2-0.3-2.1-0.9-2.8C183.6,40.3,182.7,40,181.6,40z M184.1,43.8v1.1
			c0,1-0.2,1.7-0.7,2.2s-1,0.7-1.8,0.7s-1.4-0.2-1.8-0.7c-0.4-0.5-0.7-1.2-0.7-2.2v-1.1c0-1,0.2-1.7,0.7-2.2s1-0.7,1.8-0.7
			s1.4,0.2,1.8,0.7C183.9,42.1,184.1,42.8,184.1,43.8z"/>
		<rect x="186.9" y="36.8" class="st1" width="1" height="11.7"/>
	</g>
</g>
</svg>
